<svg width="560" height="76" viewBox="0 0 560 76" fill="none" xmlns="http://www.w3.org/2000/svg">
<path d="M527.9 60.1V42.6V33.85V25.1H536L536.7 29.1H537C539.3 26.1 542.6 24.5 547 24.5C554.7 24.5 559.7 29.4 559.7 37.1V60H550.7V39.8C550.7 35.2 548.5 32.8 544.2 32.8C539.9 32.8 537 35.9 537 40.8V60.2H527.9V60.1Z" fill="#001F44"/>
<path d="M494.7 55.8C491.8 52.5 490.3 48.1 490.3 42.8C490.3 37.5 491.8 33 494.7 29.7C497.7 26.3 501.8 24.7 507.3 24.7C512.7 24.7 516.8 26.4 519.8 29.7C522.8 33.1 524.2 37.4 524.2 42.8C524.2 48.1 522.7 52.5 519.8 55.8C516.9 59.1 512.7 60.8 507.3 60.8C501.9 60.8 497.7 59.1 494.7 55.8ZM507.4 32.5C502.2 32.5 499.6 35.9 499.6 42.7C499.6 49.4 502.2 52.8 507.4 52.8C512.6 52.8 515.2 49.4 515.2 42.7C515.2 35.9 512.5 32.5 507.4 32.5Z" fill="#001F44"/>
<path d="M477.7 60.1V25.1H486.7V60.1H477.7ZM487.6 16.2C487.6 13.2 485.2 10.8 482.2 10.8C479.2 10.8 476.8 13.2 476.8 16.2C476.8 19.2 479.2 21.6 482.2 21.6C485.2 21.6 487.6 19.2 487.6 16.2Z" fill="#001F44"/>
<path d="M456.1 50V32.8H451.4V25.1H456.5V17.6L464.5 16.7H465.2V25H471.6V32.7H465.2V48C465.2 51.3 466.6 52.7 469.7 52.7C471 52.7 472.1 52.5 473.1 52.2H473.8V59.7C472.7 60 470.2 60.6 467.2 60.6C459.3 60.6 456.1 56.2 456.1 50Z" fill="#001F44"/>
<path d="M438.1 60.1V25.1H447.1V60.1H438.1ZM448 16.2C448 13.2 445.6 10.8 442.6 10.8C439.6 10.8 437.2 13.2 437.2 16.2C437.2 19.2 439.6 21.6 442.6 21.6C445.5 21.6 448 19.2 448 16.2Z" fill="#001F44"/>
<path d="M400.6 48.1V25.2H409.6V45.6C409.6 50.2 411.8 52.6 416.1 52.6C420.4 52.6 423.3 49.5 423.3 44.6V25.2H432.3V60.2H424.2L423.5 56.2H423.2C420.9 59.2 417.6 60.8 413.2 60.8C405.5 60.7 400.6 55.8 400.6 48.1Z" fill="#001F44"/>
<path d="M379.5 50V32.8H374.8V25.1H379.9V17.6L387.9 16.7H388.6V25H395V32.7H388.6V48C388.6 51.3 390 52.7 393.1 52.7C394.4 52.7 395.5 52.5 396.5 52.2H397.2V59.7C396.1 60 393.6 60.6 390.6 60.6C382.7 60.6 379.5 56.2 379.5 50Z" fill="#001F44"/>
<path d="M340.8 60.1V25.1H348.9L349.6 29.1H349.9C352.2 26.1 355.5 24.5 359.9 24.5C367.6 24.5 372.6 29.4 372.6 37.1V60H363.6V39.8C363.6 35.2 361.4 32.8 357.1 32.8C352.8 32.8 349.9 35.9 349.9 40.8V60.2H340.8V60.1Z" fill="#001F44"/>
<path d="M325.5 60.1V13.1H334.8V60.2H325.5V60.1Z" fill="#001F44"/>
<path d="M278.2 55.8C275.6 52.5 274.4 48.1 274.4 42.7C274.4 37.4 275.7 33 278.2 29.7C280.7 26.4 284.3 24.7 288.8 24.7C293 24.7 296.2 26.2 298.4 29.1H298.7V13.1H307.7V60.2H299.6L298.7 56.4H298.4C296.2 59.3 293 60.8 288.8 60.8C284.4 60.7 280.9 59.1 278.2 55.8ZM291.3 52.8C296.6 52.8 299 48.6 299 42.6C299 36.6 296.6 32.4 291.3 32.4C285.9 32.4 283.6 36.4 283.6 42.6C283.6 48.6 286 52.8 291.3 52.8Z" fill="#001F44"/>
<path d="M242.4 55.7C239.4 52.3 237.9 48 237.9 42.7C237.9 37.4 239.3 33.2 242.2 29.7C245.1 26.2 249.3 24.5 254.6 24.5C259.6 24.5 263.6 26.1 266.5 29.3C269.4 32.5 270.9 36.6 270.9 41.5V45H247.1C247.2 50 249.7 53.1 254.8 53.1C258.5 53.1 260.8 51.8 261.7 49.1H270.5C270 52.4 268.3 55.2 265.5 57.4C262.7 59.6 259.2 60.6 254.8 60.6C249.5 60.7 245.4 59.1 242.4 55.7ZM261.7 39.2C261.5 35 259.1 32.1 254.6 32.1C249.8 32.1 247.3 34.9 247.1 39.2H261.7Z" fill="#001F44"/>
<path d="M224.5 60.1V25.1H233.5V60.1H224.5ZM234.4 16.2C234.4 13.2 232 10.8 229 10.8C226 10.8 223.6 13.2 223.6 16.2C223.6 19.2 226 21.6 229 21.6C231.9 21.6 234.4 19.2 234.4 16.2Z" fill="#001F44"/>
<path d="M209.5 60.1V13.1H218.5V60.2H209.5V60.1Z" fill="#001F44"/>
<path d="M164.4 29.6C161.8 26.2 158.3 24.6 154 24.6C149.8 24.6 146.5 26.1 144.3 29H144L143.1 25.2H132.5V29.5L135 32.1V72.6H144V56.4H144.3C146.5 59.3 149.7 60.8 154 60.8C158.4 60.8 161.9 59.1 164.5 55.8C167.1 52.4 168.3 48.1 168.3 42.8C168.3 37.3 167 32.9 164.4 29.6ZM151.4 52.8C148.7 52.8 146.8 51.9 145.5 50C144.3 48.1 143.7 45.7 143.7 42.7C143.7 39.7 144.3 37.3 145.6 35.4C146.9 33.4 148.8 32.5 151.5 32.5C156.9 32.5 159.2 36.6 159.2 42.7C159.2 48.7 156.8 52.8 151.4 52.8Z" fill="#001F44"/>
<path d="M201.2 29.6C198.6 26.2 195.1 24.6 190.8 24.6C186.6 24.6 183.3 26.1 181.1 29H180.8L179.9 25.2H169.3V29.5L171.8 32.1V72.6H180.8V56.4H181.1C183.3 59.3 186.5 60.8 190.8 60.8C195.2 60.8 198.7 59.1 201.3 55.8C203.9 52.4 205.1 48.1 205.1 42.8C205.1 37.3 203.9 32.9 201.2 29.6ZM188.3 52.8C185.6 52.8 183.7 51.9 182.4 50C181.2 48.1 180.6 45.7 180.6 42.7C180.6 39.7 181.2 37.3 182.5 35.4C183.8 33.4 185.7 32.5 188.4 32.5C193.8 32.5 196.1 36.6 196.1 42.7C196 48.7 193.6 52.8 188.3 52.8Z" fill="#001F44"/>
<path d="M115.7 13.1L132.2 59.5V60.2H122L118.8 50.3H100.4L97.2 60.2H87.5V59.5L104 13.1H115.7ZM103.1 42.1H116.1L109.7 22.5H109.4L103.1 42.1Z" fill="#001F44"/>
<path fill-rule="evenodd" clip-rule="evenodd" d="M37.7 75.4C58.5211 75.4 75.4 58.5211 75.4 37.7C75.4 16.8789 58.5211 0 37.7 0C16.8789 0 0 16.8789 0 37.7C0 58.5211 16.8789 75.4 37.7 75.4ZM16.9 44.9V44.1L33 13.1H42.6L58.6 44.1V44.9H48.2L37.9 23.8H37.6L27.2 44.9H16.9ZM43.1 57C43.1 59.9823 40.6823 62.4 37.7 62.4C34.7177 62.4 32.3 59.9823 32.3 57C32.3 54.0177 34.7177 51.6 37.7 51.6C40.6823 51.6 43.1 54.0177 43.1 57Z" fill="#1070FC"/>
</svg>
